<svg width="112" height="122" viewBox="0 0 112 122" fill="none" xmlns="http://www.w3.org/2000/svg">
  <path fill="#000" d="M0 0h112v122H0z"/>
  <path d="M92.17 35.85H77.95v-.98l14.22-2.65v3.63ZM77.84 37.62v50.8h14.27V81.4h-6.17V63.15h5.91V56.5h-5.91V44.62h6.17v-7H77.84Z" fill="#FC3"/>
  <path fill-rule="evenodd" clip-rule="evenodd" d="M19.89 88.36V37.62h9.96c5.45 0 7.99 1.81 7.99 8.46V60.5c0 6.38-2.9 8.25-6.95 8.25h-3.53v19.67l-7.47-.06ZM27.3 61.5h.88c2.08 0 2.07-1.75 2.03-6.2v-4.2c.04-4.48.05-6.26-2.03-6.26h-.88v16.66ZM56.73 88.47l-3.8-50.85H41.9L36.9 88.47h6.69l1.14-12.5h3.74l.83 12.5h7.42ZM46.87 49.8l1.2 18.42h-2.45l1.25-18.42ZM57.82 88.36V37.62h9.96c5.5 0 7.99 1.81 7.99 8.5v14.43c0 6.38-2.9 8.25-6.95 8.25h-3.53v19.67l-7.47-.1Zm7.31-26.87h.88c2.09 0 2.08-1.75 2.04-6.2l-.01-2.1v-2.1c.05-4.48.06-6.26-2.03-6.26h-.88v16.66ZM96.26 87.48h.52l-.05-1.24h.47l.78 1.24h.57l-.83-1.24c.52-.06.83-.21.83-.83 0-.63-.47-.89-1.14-.89h-1.15v2.96Zm1.66-2.18c0 .42-.3.47-.62.47h-.57v-.83h.57c.31 0 .62 0 .62.36Z" fill="#FC3"/>
  <path fill-rule="evenodd" clip-rule="evenodd" d="M97.15 83.28a2.67 2.67 0 0 0-2.6 2.75v.04l.05.01c0 1.45 1.2 2.6 2.65 2.54h.05a2.67 2.67 0 1 0-.15-5.34Zm2.38 2.85a2.14 2.14 0 0 1-2.23 2.03c-1.2-.06-2.13-.99-2.02-2.13v-.1a2.14 2.14 0 0 1 2.23-2.03 2.14 2.14 0 0 1 2.02 2.23Z" fill="#FC3"/>
</svg>
